<svg width="54" height="54" viewBox="0 0 54 54" fill="none" xmlns="http://www.w3.org/2000/svg">
<path opacity="0.24" d="M49.3215 18.7261C52.9872 27.9631 50.5887 40.9486 42.7141 46.6158C34.8848 52.2384 21.5342 50.498 13.0713 44.0276C4.60844 37.5126 1.03321 26.2674 4.06537 17.8782C7.05227 9.48897 16.6918 4.00027 26.3314 4.00027C35.9709 3.95565 45.6557 9.44435 49.3215 18.7261Z" fill="#32C995"/>
<path opacity="0.75" fill-rule="evenodd" clip-rule="evenodd" d="M28.4147 48.8693L28.418 48.8689C37.5072 47.8406 44.8289 40.6215 47.1365 31.9775L47.1389 31.9685C49.5075 23.2605 46.746 13.5163 40.2002 9.06825L40.1922 9.06283C33.607 4.54201 22.6306 4.90454 14.622 10.937C10.6648 13.94 7.44243 18.3558 5.62664 23.0775C3.80505 27.8142 3.47356 32.6492 4.9738 36.5656C6.49193 40.5147 9.95523 43.8708 14.3515 46.1182C18.7408 48.362 23.8586 49.3922 28.4147 48.8693ZM3.07808 37.2729C-0.372669 28.2689 4.83333 15.8426 13.388 9.35263C21.9864 2.8742 33.9334 2.33208 41.3512 7.42444C48.7809 12.4732 51.6257 23.1885 49.097 32.4854C46.6119 41.7938 38.6978 49.716 28.6493 50.8528C18.6444 52.0012 6.56065 46.3321 3.07808 37.2729Z" fill="#32C995"/>
<path d="M26.7677 12.3198L29.5342 11.3024L30.4477 13.7863L27.4114 22.4783C27.0485 23.5358 26.7559 24.4877 26.5337 25.3342C26.316 26.171 26.1986 26.951 26.1816 27.6741C26.1691 28.3876 26.2919 29.0952 26.55 29.7969C26.7874 30.4425 27.2133 30.9191 27.8277 31.2268C28.4466 31.525 29.2152 31.6366 30.1335 31.5618L31.4324 31.4665C33.0153 31.3304 34.308 31.4604 35.3106 31.8564C36.3106 32.2454 36.9654 32.8609 37.275 33.7029C37.5847 34.5449 37.5872 35.5078 37.2824 36.5917C36.9849 37.6729 36.4035 38.8068 35.5382 39.9932L32.6331 39.1499C32.9282 38.5236 33.1065 37.9641 33.1679 37.4716C33.2364 36.9764 33.2197 36.5683 33.1178 36.2473C33.0211 35.9404 32.7816 35.7178 32.3993 35.5796C32.0268 35.4458 31.5441 35.4082 30.9513 35.4669L29.7504 35.5979C27.8963 35.8098 26.3406 35.6132 25.0833 35.0082C23.8331 34.4005 22.9616 33.4266 22.4688 32.0864C22.1307 31.1672 21.9165 30.31 21.8262 29.5148C21.7359 28.7196 21.7465 27.9351 21.858 27.1612C21.9669 26.3803 22.1529 25.5672 22.4159 24.7217C22.6764 23.8691 22.991 22.933 23.3597 21.9132L26.7677 12.3198ZM15.4561 16.4797L27.5368 12.0369L28.907 15.7628L16.8263 20.2056L15.4561 16.4797Z" fill="#32C995"/>
</svg>
