<svg style="display: none;" aria-hidden="true" xmlns="http://www.w3.org/2000/svg" xmlns:xlink="http://www.w3.org/1999/xlink"><symbol viewBox="0 0 20 20" fill="none" id="svg-alert"><rect width="20" height="20" rx="10" fill="#5C5CE5"/><path d="M11.3896 4.81818L11.131 11.8182H8.86399L8.60547 4.81818H11.3896ZM9.99751 15.1591C9.61304 15.1591 9.28326 15.0249 9.00817 14.7564C8.73639 14.4846 8.60215 14.1548 8.60547 13.767C8.60215 13.3892 8.73639 13.0661 9.00817 12.7976C9.28326 12.5291 9.61304 12.3949 9.99751 12.3949C10.3621 12.3949 10.6836 12.5291 10.962 12.7976C11.2437 13.0661 11.3862 13.3892 11.3896 13.767C11.3862 14.0256 11.3183 14.2609 11.1857 14.473C11.0565 14.6818 10.8874 14.8492 10.6786 14.9751C10.4698 15.0978 10.2428 15.1591 9.99751 15.1591Z" fill="#fff"/></symbol><symbol viewBox="0 0 24 24" fill="none" id="svg-globe"><circle cx="12" cy="12" r="9" stroke="#272C38" stroke-width="2"/><path d="M3 12H21M15 12C15 14.7078 14.6938 17.0766 14.0952 18.7308 13.475 20.4448 12.7113 21 12 21 11.2887 21 10.525 20.4448 9.9048 18.7308 9.30621 17.0766 9 14.7078 9 12 9 9.2922 9.30621 6.92342 9.9048 5.26919 10.525 3.55519 11.2887 3 12 3 12.7113 3 13.475 3.55519 14.0952 5.26919 14.6938 6.92342 15 9.2922 15 12z" stroke="#272C38" stroke-width="2"/></symbol><symbol viewBox="0 0 20 26" fill="none" id="svg-popular"><path d="M6.11194 1.13751C8.68936 1.49597 11.4266 2.56221 13.6655 4.41794C16.4511 6.72677 18.5 10.2829 18.5 15.3443C18.5 18.3593 17.5686 20.7633 16.0304 22.4047C14.4976 24.0403 12.2872 25 9.55968 25C6.98327 25 4.97259 24.2648 3.62021 23.0694C2.28002 21.8849 1.5 20.1742 1.5 18.027C1.5 16.7727 1.90367 15.8983 2.42371 14.7718C2.56104 14.4743 2.70649 14.1592 2.85476 13.815C3.419 12.5048 3.88203 10.9977 3.71942 8.88439C3.81248 8.9417 3.90556 9.00204 3.99758 9.06457C4.30181 9.27128 4.57397 9.48783 4.7741 9.67018C4.87456 9.7617 4.94755 9.83616 4.99416 9.88923C5.00349 9.89986 5.01082 9.90856 5.01641 9.91539L5.78721 11.6175L6.76553 9.96073C7.76434 8.26926 7.81355 6.27018 7.3921 4.42938C7.13021 3.28551 6.6785 2.1611 6.11194 1.13751Z" stroke="#FF5959" stroke-width="2"/></symbol><symbol viewBox="0 0 40 40" fill="none" id="svg-question"><path d="M0 20C0 8.95431 8.95431 0 20 0V0C31.0457 0 40 8.95431 40 20V20C40 31.0457 31.0457 40 20 40V40C8.95431 40 0 31.0457 0 20V20Z" fill="#F0F2F5"/><path d="M18.0067 23.8693V23.6477C18.0124 22.6193 18.109 21.8011 18.2965 21.1932C18.4897 20.5852 18.7624 20.0966 19.1147 19.7273C19.467 19.3523 19.896 19.0085 20.4016 18.696C20.7482 18.4801 21.0579 18.2443 21.3306 17.9886C21.609 17.7273 21.8278 17.4375 21.9869 17.1193C22.146 16.7955 22.2255 16.4347 22.2255 16.0369C22.2255 15.5881 22.1204 15.1989 21.9102 14.8693C21.6999 14.5398 21.4158 14.2841 21.0579 14.1023C20.7056 13.9205 20.3107 13.8295 19.8732 13.8295C19.4698 13.8295 19.0863 13.9176 18.7227 14.0938C18.3647 14.2642 18.0664 14.5256 17.8278 14.8778C17.5948 15.2244 17.4641 15.6648 17.4357 16.1989H14.4016C14.43 15.1193 14.6914 14.2159 15.1857 13.4886C15.6857 12.7614 16.3448 12.2159 17.163 11.8523C17.9869 11.4886 18.896 11.3068 19.8903 11.3068C20.9755 11.3068 21.93 11.4972 22.7539 11.8778C23.5835 12.2585 24.2283 12.8011 24.6886 13.5057C25.1545 14.2045 25.3874 15.0341 25.3874 15.9943C25.3874 16.642 25.2823 17.2216 25.0721 17.733C24.8675 18.2443 24.5749 18.6989 24.1942 19.0966C23.8136 19.4943 23.3619 19.8494 22.8391 20.1619C22.3789 20.446 22.0011 20.7415 21.7056 21.0483C21.4158 21.3551 21.1999 21.7159 21.0579 22.1307C20.9215 22.5398 20.8505 23.0455 20.8448 23.6477V23.8693H18.0067ZM19.4897 29.1875C18.9783 29.1875 18.538 29.0057 18.1687 28.642C17.7994 28.2784 17.6147 27.8352 17.6147 27.3125C17.6147 26.8011 17.7994 26.3636 18.1687 26C18.538 25.6364 18.9783 25.4545 19.4897 25.4545C19.9954 25.4545 20.4329 25.6364 20.8022 26C21.1772 26.3636 21.3647 26.8011 21.3647 27.3125C21.3647 27.6591 21.2766 27.9744 21.1005 28.2585C20.93 28.5426 20.7028 28.7699 20.4187 28.9403C20.1403 29.1051 19.8306 29.1875 19.4897 29.1875Z" fill="#5B6784"/></symbol><symbol viewBox="0 0 40 40" fill="none" id="svg-rule"><path d="M0 20C0 8.95431 8.95431 0 20 0C31.0457 0 40 8.95431 40 20C40 31.0457 31.0457 40 20 40C8.95431 40 0 31.0457 0 20Z" fill="#5C5CE5"/><path d="M18.8377 12.5199C19.2077 11.7177 19.3927 11.3167 19.6481 11.1916C19.8701 11.0828 20.1299 11.0828 20.3519 11.1916C20.6073 11.3167 20.7923 11.7177 21.1623 12.5199L22.5213 15.4661C22.6308 15.7035 22.6855 15.8222 22.7686 15.9135C22.8421 15.9943 22.9314 16.0591 23.031 16.1041C23.1435 16.1549 23.2733 16.1703 23.5329 16.2011L26.7548 16.5831C27.6321 16.6871 28.0707 16.7391 28.2686 16.9434C28.4406 17.1209 28.5209 17.368 28.4861 17.6127C28.446 17.8943 28.1217 18.1942 27.4732 18.7939L25.0911 20.9968C24.8992 21.1743 24.8032 21.2631 24.7421 21.3703C24.6879 21.4652 24.6538 21.5702 24.6418 21.6787C24.6283 21.8014 24.6538 21.9296 24.7047 22.186L25.337 25.3683C25.5092 26.2348 25.5953 26.668 25.4622 26.9193C25.3465 27.1378 25.1363 27.2905 24.8928 27.333C24.6126 27.3819 24.2272 27.1662 23.4564 26.7347L20.6252 25.15C20.3971 25.0223 20.283 24.9584 20.1622 24.9334C20.0552 24.9113 19.9448 24.9113 19.8378 24.9334C19.717 24.9584 19.6029 25.0223 19.3748 25.15L16.5436 26.7347C15.7728 27.1662 15.3874 27.3819 15.1072 27.333C14.8637 27.2905 14.6535 27.1378 14.5378 26.9193C14.4047 26.668 14.4908 26.2348 14.663 25.3683L15.2953 22.186C15.3462 21.9296 15.3717 21.8014 15.3582 21.6787C15.3462 21.5702 15.3121 21.4652 15.2579 21.3703C15.1968 21.2631 15.1008 21.1743 14.9089 20.9968L12.5268 18.7939C11.8783 18.1942 11.554 17.8943 11.5139 17.6127C11.4791 17.368 11.5594 17.1209 11.7314 16.9434C11.9293 16.7391 12.3679 16.6871 13.2452 16.5831L16.4671 16.2011C16.7267 16.1703 16.8565 16.1549 16.969 16.1041C17.0686 16.0591 17.1579 15.9943 17.2314 15.9135C17.3145 15.8222 17.3692 15.7035 17.4787 15.4661L18.8377 12.5199Z" fill="#fff"/></symbol></svg>