<svg width="20" height="20" viewBox="0 0 20 20" fill="none" xmlns="http://www.w3.org/2000/svg">
<rect width="20" height="20" rx="10" fill="#5C5CE5"/>
<path d="M6 9C5.44772 9 5 9.44772 5 10C5 10.5523 5.44772 11 6 11V9ZM14 10L14.7071 10.7071C15.0976 10.3166 15.0976 9.68342 14.7071 9.29289L14 10ZM11.7071 6.29289C11.3166 5.90237 10.6834 5.90237 10.2929 6.29289C9.90237 6.68342 9.90237 7.31658 10.2929 7.70711L11.7071 6.29289ZM10.2929 12.2929C9.90237 12.6834 9.90237 13.3166 10.2929 13.7071C10.6834 14.0976 11.3166 14.0976 11.7071 13.7071L10.2929 12.2929ZM6 11H14V9H6V11ZM14.7071 9.29289L11.7071 6.29289L10.2929 7.70711L13.2929 10.7071L14.7071 9.29289ZM13.2929 9.29289L10.2929 12.2929L11.7071 13.7071L14.7071 10.7071L13.2929 9.29289Z" fill="white"/>
</svg>
